<svg height="512" viewBox="0 0 512 512" width="512" xmlns="http://www.w3.org/2000/svg"><g id="Outline"><path d="m482.5 383.505-30.3-6.054-37.844-42.576a40.2 40.2 0 0 0 -25.406-37.924l-4.016-1.573a51.486 51.486 0 0 0 -4.1-3.435q-7.61-12.684-15.22-25.368c-10.51-17.517-19.908-34.776-33.249-50.34-9.9-11.548-35.8-40.74-37.85-44.159l-23.655-39.423a8.226 8.226 0 0 0 -.459-.683c-11.537-15.451-21.766-32.336-40.424-39.825a57.887 57.887 0 0 0 -57.675 8.542 102.4 102.4 0 0 0 -28.885 36.78l-38.417 82.605-31.66 47.49a7.931 7.931 0 0 0 -.509.879l-56 112.771a7.99 7.99 0 0 0 -.831 3.558v24a8 8 0 0 0 8 8h62.109a17.886 17.886 0 0 0 8-33.885l-18.426-9.217 135.056-202.584 6.184 3.092 7.232 36.163a8 8 0 0 0 1.189 2.869l13.437 20.156a37.069 37.069 0 0 0 .525 31.907 36.686 36.686 0 0 0 32.974 20.389c2.045 0 28.111-4.179 28.111-4.179l1.96 2.744 3.673 12.015-13.363 13.045a8 8 0 0 0 -.95 10.333l12.126 17.208-.9 5.252a8 8 0 0 0 5.817 9.08l12.029 3.218 2.735 3.372c.087.107.175.212.268.314 9.178 10.146 25.182 14.253 38.11 9.664.431-.126.862-.261 1.293-.4l-.552 5.807a40.043 40.043 0 0 0 36.038 43.6q.385.038.765.037a8 8 0 0 0 7.955-7.244l1.077-11.335 18.147 16.5a8 8 0 0 0 5.381 2.079h47.21a16.8 16.8 0 0 0 3.287-33.265zm-425.156-11.172a8 8 0 0 0 3.077 11.592l26.515 13.262a1.962 1.962 0 0 1 .788.713 1.834 1.834 0 0 1 .276.98 1.893 1.893 0 0 1 -1.891 1.89h-54.109v-14.124l27.741-55.863 22.029 4.91zm165.114-213.278-3.725-1.863 4.422-8.844-14.31-7.156-7.778 15.555-109.782 164.674-24.215-5.4 19.868-40.009 31.718-47.577a7.888 7.888 0 0 0 .6-1.065l38.67-83.159a86.486 86.486 0 0 1 10.391-16.928 85.607 85.607 0 0 1 13.976-14.1 42.04 42.04 0 0 1 26.187-9.183 41.619 41.619 0 0 1 15.531 2.991c13.139 5.258 20.744 17.452 28.881 28.3zm20.417 51.6-3.341-5.011-6.855-34.276 29.114-22.731 19.347 32.244c.023.039.055.071.079.11zm28.509 58.969a20.757 20.757 0 0 1 -17.769-11.516 20.981 20.981 0 0 1 0-18.685l1.54-3.08a8 8 0 0 0 -.5-8.015l-2.884-4.327 39.792-30.784 10.163 11.856c-27.261 22.86-30.617 50.702-30.342 64.556zm16-2.2c.024-1.626.119-3.463.326-5.468l3.094 4.9zm61.7 86.315a19.5 19.5 0 0 1 -12.25-5.231c-2.977-2.769-4.76-6.875-8.586-8.671-2.485-1.166-5.65-1.54-8.309-2.252l.226-1.316a8 8 0 0 0 -1.346-5.96l-10.1-14.339 9.61-9.382 19.161 26.832a7.959 7.959 0 0 0 1.128 1.269l11.444 10.4.781 8.65c-.584.027-1.17.032-1.759.003zm43.269 44.943a24.042 24.042 0 0 1 -13.79-24.039l.319-3.353 14.8 13.45zm86.857 2.085h-44.117l-85.079-77.345-39.365-55.11-11.885-18.812-10.137 6.4c2.269-11.354 8.336-25.921 23.519-38.665l17.341 20.23 47.653 79.422a8 8 0 0 0 .881 1.2l64 72a8 8 0 0 0 4.412 2.53l32.914 6.577a.811.811 0 0 1 .653.788.79.79 0 0 1 -.79.788z"/></g></svg>